<svg xmlns="http://www.w3.org/2000/svg" style="display: none;">
  <!-- Facebook -->
  <symbol id="icon-facebook" viewBox="0 0 24 24">
    <path d="M22.675 0h-21.35C.6 0 0 .6 0 1.326v21.348C0 23.4.6 24 1.325 24h11.497V14.708h-3.13v-3.622h3.13V8.413c0-3.1 1.894-4.788 4.659-4.788 1.325 0 2.464.099 2.794.143v3.24l-1.917.001c-1.504 0-1.796.715-1.796 1.763v2.31h3.59l-.467 3.622h-3.123V24h6.116c.726 0 1.325-.6 1.325-1.326V1.326C24 .6 23.4 0 22.675 0z"/>
  </symbol>

  <!-- Instagram -->
  <symbol id="icon-instagram" viewBox="0 0 24 24">
    <path d="M12 2.2c3.2 0 3.584.012 4.85.07 1.17.055 1.97.25 2.43.41a4.92 4.92 0 011.78 1.04 4.92 4.92 0 011.04 1.78c.16.46.355 1.26.41 2.43.058 1.266.07 1.65.07 4.85s-.012 3.584-.07 4.85c-.055 1.17-.25 1.97-.41 2.43a4.92 4.92 0 01-1.04 1.78 4.92 4.92 0 01-1.78 1.04c-.46.16-1.26.355-2.43.41-1.266.058-1.65.07-4.85.07s-3.584-.012-4.85-.07c-1.17-.055-1.97-.25-2.43-.41a4.92 4.92 0 01-1.78-1.04 4.92 4.92 0 01-1.04-1.78c-.16-.46-.355-1.26-.41-2.43C2.212 15.784 2.2 15.4 2.2 12s.012-3.584.07-4.85c.055-1.17.25-1.97.41-2.43a4.92 4.92 0 011.04-1.78 4.92 4.92 0 011.78-1.04c.46-.16 1.26-.355 2.43-.41C8.416 2.212 8.8 2.2 12 2.2zm0 1.8c-3.148 0-3.518.012-4.76.07-.977.047-1.51.21-1.864.35-.47.183-.804.402-1.158.756s-.573.688-.756 1.158c-.14.353-.303.887-.35 1.864-.058 1.242-.07 1.612-.07 4.76s.012 3.518.07 4.76c.047.977.21 1.51.35 1.864.183.47.402.804.756 1.158s.688.573 1.158.756c.353.14.887.303 1.864.35 1.242.058 1.612.07 4.76.07s3.518-.012 4.76-.07c.977-.047 1.51-.21 1.864-.35.47-.183.804-.402 1.158-.756s.573-.688.756-1.158c.14-.353.303-.887.35-1.864.058-1.242.07-1.612.07-4.76s-.012-3.518-.07-4.76c-.047-.977-.21-1.51-.35-1.864a3.117 3.117 0 00-.756-1.158 3.117 3.117 0 00-1.158-.756c-.353-.14-.887-.303-1.864-.35-1.242-.058-1.612-.07-4.76-.07zM12 5.838a6.162 6.162 0 110 12.324A6.162 6.162 0 0112 5.838zm0 1.8a4.362 4.362 0 100 8.724 4.362 4.362 0 000-8.724zm6.406-.9a1.44 1.44 0 110 2.88 1.44 1.44 0 010-2.88z"/>
  </symbol>

  <!-- Twitter -->
  <symbol id="icon-twitter" viewBox="0 0 24 24">
    <path d="M22.46 6c-.77.35-1.6.58-2.47.69a4.302 4.302 0 001.88-2.37 8.59 8.59 0 01-2.73 1.04 4.28 4.28 0 00-7.29 3.9A12.14 12.14 0 013 4.79a4.28 4.28 0 001.32 5.7 4.2 4.2 0 01-1.94-.54v.05a4.28 4.28 0 003.43 4.2 4.3 4.3 0 01-1.93.07 4.28 4.28 0 004 2.98A8.6 8.6 0 012 19.54 12.13 12.13 0 008.29 21c7.55 0 11.68-6.26 11.68-11.68 0-.18-.01-.35-.02-.53A8.36 8.36 0 0024 6.5a8.49 8.49 0 01-2.54.7z"/>
  </symbol>

  <!-- YouTube -->
  <symbol id="icon-youtube" viewBox="0 0 24 24">
    <path d="M19.615 3.184C20.403 3.385 21.09 4.06 21.3 4.844c.385 1.433.404 4.42.404 7.156 0 2.738-.02 5.725-.404 7.157-.21.783-.897 1.458-1.685 1.66-1.462.383-7.307.383-7.307.383s-5.846 0-7.308-.383c-.788-.202-1.475-.877-1.685-1.66C2.68 17.725 2.66 14.738 2.66 12c0-2.737.02-5.724.404-7.156.21-.784.897-1.459 1.685-1.66C6.211 2.8 12.056 2.8 12.056 2.8s5.845 0 7.308.383zM9.7 8.48v7.04l6.07-3.52L9.7 8.48z"/>
  </symbol>

  <!-- LinkedIn -->
  <symbol id="icon-linkedin" viewBox="0 0 24 24">
    <path d="M4.98 3.5a2.5 2.5 0 11.001 5.001A2.5 2.5 0 014.98 3.5zM3 9h4v12H3zM9 9h3.6v1.71h.05c.5-.94 1.73-1.93 3.56-1.93 3.8 0 4.5 2.5 4.5 5.75V21h-4v-5.25c0-1.25 0-2.88-1.75-2.88s-2.02 1.37-2.02 2.78V21H9V9z"/>
  </symbol>

  <!-- TikTok -->
  <symbol id="icon-tiktok" viewBox="0 0 24 24">
    <path d="M16 1c.384 2.105 1.84 3.387 4 3.5v3.375c-1.53-.022-2.943-.59-4-1.602v6.583c0 3.893-2.83 7.173-6.684 7.53a6.999 6.999 0 01-7.57-6.37A7.002 7.002 0 0112.5 7v3.43a3.5 3.5 0 100 6.635c.837-.216 1.5-1.06 1.5-2.065V1h2z"/>
  </symbol>

  <!-- GitHub -->
  <symbol id="icon-github" viewBox="0 0 24 24">
    <path d="M12 .3a12 12 0 00-3.79 23.4c.6.11.82-.26.82-.58v-2.03c-3.34.73-4.04-1.62-4.04-1.62a3.18 3.18 0 00-1.34-1.77c-1.1-.75.09-.73.09-.73a2.5 2.5 0 011.83 1.23 2.54 2.54 0 003.47 1 2.5 2.5 0 01.75-1.57c-2.67-.3-5.47-1.33-5.47-5.93A4.64 4.64 0 017.3 7.6a4.3 4.3 0 01.12-3.17s1-.32 3.3 1.23a11.39 11.39 0 016 0c2.3-1.55 3.3-1.23 3.3-1.23a4.3 4.3 0 01.12 3.17 4.64 4.64 0 011.23 3.22c0 4.61-2.8 5.63-5.48 5.93.42.36.8 1.09.8 2.2v3.26c0 .32.21.69.82.58A12 12 0 0012 .3z"/>
  </symbol>
</svg>